PathFileType	4	(X/Y/Z)
DataRate	CameraRate	NumFrames	NumMarkers	Units	OrigDataRate	OrigDataStartFrame	OrigNumFrames	
	120.0	120.0	9	39	mm	120.0	101	201
Frame#	Time	midhip	hip_r	hip_l	knee_r	knee_l	ankle_r	ankle_l	midasis	asis_r	asis_l	psis_r	psis_l	epicondLat_r	epicondLat_l	epicondMed_r	epicondMed_l	malleolusLat_r	malleolusLat_l	malleolusMedv_r	malleolusMedv_l	heel_r	heel_l	sternalnotch	xyphoidprocess	neck	subclavicle_r	subclavicle_l	toe_r	toe_l	thighwand_r	thighwand_l	upperleg1_r	upperleg1_l	upperleg2_r	upperleg2_l	shankwand_r	shankwand_l	lowerleg1_r	lowerleg1_l
	X1	Y1	Z1	X2	Y2	Z2	X3	Y3	Z3	X4	Y4	Z4	X5	Y5	Z5	X6	Y6	Z6	X7	Y7	Z7	X8	Y8	Z8	X9	Y9	Z9	X10	Y10	Z10	X11	Y11	Z11	X12	Y12	Z12	X13	Y13	Z13	X14	Y14	Z14	X15	Y15	Z15	X16	Y16	Z16	X17	Y17	Z17	X18	Y18	Z18	X19	Y19	Z19	X20	Y20	Z20	X21	Y21	Z21	X22	Y22	Z22	X23	Y23	Z23	X24	Y24	Z24	X25	Y25	Z25	X26	Y26	Z26	X27	Y27	Z27	X28	Y28	Z28	X29	Y29	Z29	X30	Y30	Z30	X31	Y31	Z31	X32	Y32	Z32	X33	Y33	Z33	X34	Y34	Z34	X35	Y35	Z35	X36	Y36	Z36	X37	Y37	Z37	X38	Y38	Z38	X39	Y39	Z39

	101	0.84167	746.586	784.753	-244.954	725.723	790.306	-165.679	725.419	790.749	-321.307	722.286	419.167	-154.695	733.626	429.731	-333.346	716.237	58.925	-117.120	726.651	56.800	-368.687	860.746	852.049	-243.582	860.987	851.698	-120.128	860.505	852.400	-367.035	623.283	944.052	-208.645	619.207	941.950	-263.466	728.843	421.272	-81.518	726.521	432.008	-406.466	705.451	425.525	-222.309	729.768	408.926	-259.320	705.894	63.159	-78.193	702.523	60.432	-402.256	721.983	66.901	-153.121	722.629	72.606	-325.824	653.835	49.938	-124.707	672.346	47.345	-334.426	783.418	1288.035	-265.076	841.122	1218.848	-265.434	665.221	1351.382	-247.096	800.777	1294.478	-212.409	799.182	1294.994	-293.951	824.424	43.675	-104.655	822.051	48.188	-383.229	890.171	573.192	-91.143	909.600	604.700	-347.962	851.425	595.458	-111.537	862.382	620.769	-351.378	821.573	523.033	-114.439	844.187	549.681	-352.339	800.389	208.441	-103.759	686.146	175.115	-460.741	754.789	214.496	-116.939	692.291	184.688	-412.337
	102	0.85000	746.656	784.753	-244.966	725.795	790.313	-165.690	725.488	790.758	-321.318	722.352	419.270	-154.782	733.613	429.747	-333.361	716.260	58.953	-117.132	726.632	56.814	-368.724	860.831	852.023	-243.595	861.075	851.670	-120.114	860.588	852.376	-367.076	623.400	944.087	-208.631	619.342	941.969	-263.462	728.869	421.360	-81.602	726.518	432.026	-406.482	705.165	425.773	-222.278	730.207	408.712	-259.265	705.897	63.195	-78.211	702.507	60.449	-402.295	722.006	66.915	-153.130	722.739	72.620	-325.899	653.845	49.909	-124.703	672.357	47.337	-334.439	783.669	1288.110	-264.860	841.435	1218.976	-265.328	665.335	1351.500	-247.062	801.387	1294.788	-212.212	799.224	1294.964	-294.002	824.417	43.689	-104.674	822.056	48.197	-383.187	890.258	573.215	-91.253	909.626	604.612	-348.038	851.503	595.420	-111.510	862.344	620.746	-351.415	821.571	522.989	-114.475	844.307	549.740	-352.367	800.453	208.456	-103.729	686.102	175.138	-460.751	754.789	214.496	-116.939	692.323	184.594	-412.449
	103	0.85833	746.718	784.755	-244.990	725.853	790.321	-165.714	725.549	790.770	-321.343	722.414	419.384	-154.874	733.550	429.706	-333.362	716.292	58.992	-117.152	726.615	56.828	-368.739	860.902	852.010	-243.615	861.143	851.654	-120.112	860.660	852.366	-367.118	623.515	944.116	-208.613	619.458	941.976	-263.446	728.880	421.463	-81.688	726.479	431.983	-406.486	704.886	425.782	-222.033	730.122	408.974	-259.066	705.902	63.241	-78.239	702.500	60.463	-402.317	722.035	66.939	-153.145	722.776	72.607	-325.930	653.859	49.863	-124.705	672.372	47.331	-334.444	784.227	1288.297	-264.354	842.182	1219.324	-265.114	665.231	1351.745	-247.139	802.635	1295.394	-211.811	799.365	1294.990	-293.930	824.410	43.703	-104.694	822.068	48.219	-383.139	890.343	573.238	-91.339	909.679	604.560	-348.071	851.425	595.417	-111.544	862.476	620.803	-351.483	821.519	523.008	-114.464	844.359	549.730	-352.338	800.491	208.470	-103.689	686.057	175.171	-460.747	754.743	214.511	-116.946	692.308	184.543	-412.465
	104	0.86667	746.779	784.758	-245.005	725.914	790.331	-165.728	725.604	790.783	-321.357	722.468	419.488	-154.947	733.493	429.657	-333.355	716.333	59.042	-117.179	726.610	56.837	-368.738	860.966	852.009	-243.633	861.212	851.650	-120.114	860.720	852.368	-367.152	623.614	944.143	-208.596	619.542	941.977	-263.420	728.884	421.557	-81.757	726.439	431.933	-406.481	704.707	425.709	-221.909	729.953	409.167	-259.166	705.916	63.296	-78.274	702.503	60.470	-402.322	722.048	66.977	-153.171	722.827	72.611	-325.948	653.874	49.816	-124.715	672.383	47.328	-334.444	784.704	1288.377	-264.050	842.780	1219.507	-264.860	665.142	1351.867	-247.162	803.349	1295.679	-211.571	799.686	1295.000	-293.767	824.408	43.718	-104.716	822.085	48.247	-383.091	890.416	573.260	-91.409	909.721	604.537	-348.091	851.339	595.355	-111.607	862.599	620.927	-351.546	821.466	522.983	-114.489	844.376	549.702	-352.392	800.493	208.477	-103.657	686.025	175.207	-460.735	754.653	214.542	-116.959	692.308	184.543	-412.465
	105	0.87500	746.839	784.762	-245.011	725.975	790.342	-165.733	725.655	790.795	-321.361	722.505	419.561	-154.988	733.447	429.619	-333.347	716.379	59.092	-117.199	726.613	56.843	-368.731	861.025	852.014	-243.646	861.278	851.654	-120.115	860.771	852.374	-367.176	623.686	944.173	-208.582	619.592	941.981	-263.392	728.881	421.622	-81.795	726.407	431.894	-406.474	705.202	425.332	-222.026	730.036	409.007	-259.597	705.941	63.347	-78.299	702.512	60.473	-402.320	722.081	67.004	-153.186	722.986	72.596	-325.982	653.883	49.776	-124.733	672.388	47.329	-334.442	784.717	1288.226	-264.338	842.706	1219.278	-264.809	665.292	1351.770	-247.058	802.867	1295.341	-211.845	799.997	1294.921	-293.709	824.418	43.730	-104.739	822.110	48.278	-383.033	890.476	573.270	-91.463	909.727	604.536	-348.120	851.294	595.316	-111.614	862.655	621.062	-351.531	821.712	522.921	-114.566	844.406	549.690	-352.531	800.487	208.476	-103.631	686.016	175.248	-460.721	754.607	214.557	-116.966	692.400	184.553	-412.443
	106	0.88333	746.892	784.766	-245.006	726.034	790.348	-165.725	725.699	790.807	-321.354	722.523	419.592	-154.996	733.418	429.591	-333.341	716.408	59.120	-117.194	726.619	56.845	-368.718	861.078	852.019	-243.649	861.343	851.654	-120.112	860.812	852.383	-367.187	623.731	944.198	-208.573	619.607	941.999	-263.362	728.881	421.650	-81.801	726.385	431.868	-406.469	706.498	424.665	-222.436	729.923	409.222	-259.570	705.960	63.376	-78.297	702.522	60.473	-402.310	722.134	67.001	-153.172	723.101	72.548	-325.993	653.882	49.742	-124.757	672.386	47.333	-334.437	784.592	1288.058	-264.794	842.453	1219.002	-264.961	665.521	1351.615	-246.919	802.238	1294.940	-212.312	800.174	1294.834	-293.777	824.438	43.734	-104.754	822.126	48.292	-382.972	890.493	573.257	-91.462	909.697	604.545	-348.176	851.226	595.402	-111.550	862.696	621.286	-351.616	822.278	522.936	-114.703	844.352	549.654	-352.571	800.482	208.465	-103.611	686.028	175.285	-460.702	754.653	214.542	-116.959	692.490	184.606	-412.341
	107	0.89167	746.941	784.775	-244.981	726.099	790.354	-165.696	725.733	790.816	-321.324	722.522	419.582	-154.978	733.427	429.581	-333.341	716.420	59.112	-117.160	726.630	56.838	-368.696	861.127	852.027	-243.646	861.417	851.660	-120.104	860.836	852.393	-367.187	623.757	944.214	-208.568	619.603	942.027	-263.329	728.891	421.636	-81.784	726.389	431.864	-406.468	707.562	424.340	-222.941	729.778	409.553	-259.088	705.978	63.370	-78.261	702.530	60.463	-402.286	722.185	66.971	-153.131	722.920	72.514	-325.911	653.869	49.713	-124.778	672.380	47.340	-334.425	784.599	1288.025	-264.854	842.444	1218.955	-265.061	665.661	1351.556	-246.985	802.258	1294.883	-212.414	800.177	1294.808	-293.799	824.462	43.729	-104.757	822.106	48.265	-382.936	890.467	573.223	-91.412	909.630	604.539	-348.264	851.271	595.468	-111.477	862.636	621.421	-351.748	822.733	523.007	-114.822	844.213	549.577	-352.500	800.474	208.447	-103.608	686.047	175.303	-460.674	754.743	214.511	-116.946	692.394	184.683	-412.205
	108	0.90000	746.986	784.794	-244.931	726.172	790.373	-165.641	725.760	790.819	-321.268	722.513	419.546	-154.944	733.499	429.600	-333.341	716.409	59.077	-117.115	726.656	56.823	-368.667	861.174	852.044	-243.637	861.501	851.690	-120.095	860.847	852.398	-367.178	623.771	944.221	-208.567	619.614	942.058	-263.288	728.909	421.594	-81.751	726.425	431.893	-406.464	707.890	424.390	-223.180	729.949	409.527	-258.554	705.981	63.336	-78.212	702.540	60.448	-402.246	722.189	66.937	-153.088	722.760	72.520	-325.828	653.848	49.685	-124.787	672.369	47.349	-334.411	784.499	1287.946	-264.959	842.231	1218.781	-265.130	665.805	1351.533	-247.106	801.951	1294.620	-212.412	800.209	1294.789	-293.832	824.487	43.719	-104.752	822.070	48.219	-382.947	890.417	573.167	-91.338	909.536	604.498	-348.372	851.421	595.456	-111.421	862.438	621.296	-351.844	822.875	523.031	-114.823	844.123	549.520	-352.412	800.473	208.432	-103.618	686.064	175.300	-460.636	754.789	214.496	-116.939	692.300	184.717	-412.148
	109	0.90833	747.026	784.821	-244.867	726.244	790.402	-165.571	725.783	790.814	-321.199	722.497	419.496	-154.890	733.617	429.637	-333.327	716.377	59.027	-117.071	726.702	56.815	-368.636	861.217	852.067	-243.624	861.583	851.740	-120.087	860.851	852.394	-367.161	623.782	944.213	-208.564	619.651	942.089	-263.240	728.929	421.539	-81.700	726.483	431.937	-406.443	708.112	424.334	-223.328	729.893	409.601	-258.300	705.969	63.286	-78.164	702.559	60.441	-402.195	722.229	66.899	-153.048	722.757	72.552	-325.777	653.828	49.664	-124.790	672.357	47.353	-334.400	784.522	1287.858	-265.084	842.174	1218.627	-265.185	666.017	1351.459	-247.080	801.758	1294.378	-212.391	800.361	1294.757	-293.927	824.504	43.707	-104.740	822.046	48.179	-382.971	890.358	573.084	-91.244	909.431	604.422	-348.483	851.426	595.454	-111.334	862.488	621.132	-351.849	822.921	522.974	-114.808	844.094	549.483	-352.383	800.486	208.419	-103.630	686.084	175.286	-460.588	754.871	214.519	-116.970	692.300	184.717	-412.148
